<?xml version="1.0" encoding="UTF-8"?>
<!DOCTYPE svg PUBLIC "-//W3C//DTD SVG 1.1//EN" "http://www.w3.org/Graphics/SVG/1.1/DTD/svg11.dtd">
<!-- Creator: CorelDRAW 2021.5 -->
<svg xmlns="http://www.w3.org/2000/svg" xml:space="preserve" width="300mm" height="90.3025mm" version="1.1" style="shape-rendering:geometricPrecision; text-rendering:geometricPrecision; image-rendering:optimizeQuality; fill-rule:evenodd; clip-rule:evenodd"
viewBox="0 0 24628.68 7413.44"
 xmlns:xlink="http://www.w3.org/1999/xlink"
 xmlns:xodm="http://www.corel.com/coreldraw/odm/2003">
 <defs>
  <style type="text/css">
   <![CDATA[
    .fil0 {fill:#F1B53B}
    .fil2 {fill:#264A2A}
    .fil1 {fill:#264A2A;fill-rule:nonzero}
   ]]>
  </style>
 </defs>
 <g id="Слой_x0020_1">
  <metadata id="CorelCorpID_0Corel-Layer"/>
  <g id="_1554646684288">
   <path class="fil0" d="M5098.16 3434.38l1926.04 -515.86 0 -0.76c158.8,-42.57 317.6,63.78 342.68,226.38 57.71,371.54 57.71,751.45 -1.54,1129.05 -25.81,162.56 -183.85,268.95 -342.64,226.38l-1924.53 -515.12c-123.09,-32.67 -202.83,-145.88 -202.83,-272.75l0 -2.27 0 -2.3c0,-126.89 79.75,-240.1 202.83,-272.75zm1492.23 -2046.82c117.77,147.38 225.62,303.92 321.36,470.28l0.79 0.76c96.49,165.65 178.54,337.37 246.92,512.85 59.26,151.98 -27.35,321.4 -184.64,363.93 -489.27,131.44 -1481.56,397.38 -1925.25,515.91 -123.08,32.67 -249.21,-25.09 -312.28,-135.24l-2.26 -4.56c-64.62,-110.16 -50.94,-248.45 38.72,-338.08l1408.62 -1407.87c115.48,-115.47 306.18,-105.6 408.02,22.03zm-1856.12 2921.31c1.5,-1.5 3.01,-4.56 3.01,-4.56l0.75 0c63.82,-110.16 189.21,-167.92 312.28,-135.21 205.55,55 529.25,141.73 865.95,231.99 388.9,104.21 795.19,213.08 1057.03,283.13 157.3,41.78 243.11,211.99 184.64,363.92 -137.55,356.32 -329.01,689.14 -567.55,984.69 -102.59,126.89 -292.54,137.51 -408.02,22.04l-1408.62 -1407.87c-90.42,-90.42 -103.34,-227.93 -39.48,-338.13zm-571.36 -1944.98l515.11 -1922.98 0.76 0c42.57,-157.3 212,-243.15 363.93,-184.64 359.37,138.26 690.64,329.72 985.43,566.8 126.89,101.79 137.51,291.74 22.04,407.21l-1409.38 1409.38c-90.41,89.66 -227.92,102.59 -338.08,38.77l-4.56 -2.31c-110.2,-63.02 -167.95,-189.16 -135.24,-312.23zm134.46 2380.35c1.54,-0.76 3.8,-2.26 3.8,-2.26l-0.76 0c110.16,-63.82 248.46,-50.9 338.09,38.72l1407.87 1407.12c116.26,115.47 105.6,305.42 -22.04,408.01 -298.56,240.06 -629.83,429.25 -980.87,565.26 -153.44,59.26 -324.41,-24.3 -366.94,-183.1 -130.7,-487.8 -395.84,-1478.55 -514.36,-1921.48 -32.67,-123.08 25.05,-249.21 135.21,-312.28zm-1936.67 -4487.97c153.49,-60.02 325.21,23.55 367.74,183.09l0 -0.76c131.44,488.56 397.38,1480.82 515.91,1924.49 32.67,123.13 -25.09,249.22 -135.24,312.28l-4.56 2.3c-110.16,63.82 -248.46,50.9 -338.08,-38.77l-1408.63 -1407.87c-115.51,-115.47 -105.64,-305.42 22,-407.97 147.42,-118.52 304.67,-225.67 471.07,-322.15 165.65,-94.98 335.82,-176.28 509.8,-244.65zm-267.15 5197.72c260.46,-260.26 514.85,-514.49 673.65,-673.28l-0.75 0c90.41,-89.62 227.92,-102.55 338.08,-38.72 0.59,0.29 1.09,0.71 1.55,1.08 0.66,0.63 1.34,1.17 2.26,1.17 110.16,63.82 167.91,189.2 135.2,312.28l-515.11 1922.99c-41.78,157.29 -212,243.1 -363.93,184.64 -356.32,-137.55 -689.14,-329.01 -984.68,-567.56 -126.85,-101.83 -137.51,-291.74 -22,-407.26 183.09,-183.13 462.71,-462.54 735.72,-735.34zm-1844.24 -3082.53c138.26,-358.62 328.97,-690.64 566.76,-985.39l0 -0.8c101.84,-126.89 291.79,-137.51 407.26,-21.99l1409.38 1409.38c89.66,90.38 102.59,227.92 38.77,338.09l-2.31 4.56c-63.07,110.16 -189.16,167.91 -312.28,135.25l-1922.99 -515.16c-157.25,-41.78 -243.1,-211.95 -184.59,-363.93zm186.14 2312.01l1922.24 -514.36 -0.8 0c123.12,-32.71 249.21,25.05 312.28,135.21 0.51,1.46 1.26,2.59 1.97,3.6 0.42,0.58 0.8,1.17 1.08,1.76 63.82,109.4 50.14,247.67 -39.52,337.33l-1407.87 1407.08c-115.47,115.51 -305.42,104.89 -407.97,-22.75 -240.1,-298.61 -429.29,-629.88 -565.29,-980.88 -59.26,-153.49 25.09,-324.45 183.89,-366.98zm-50.14 -1764.19l1922.98 515.12c123.09,32.66 202.83,145.87 202.83,272.75l0 2.3 0 2.27c0,126.88 -79.75,240.09 -202.83,272.75l-1922.23 515.12c-158.8,42.57 -317.6,-63.82 -342.68,-226.38 -56.97,-370.04 -58.47,-749.9 -0.76,-1126.75 25.09,-162.6 183.14,-269.75 342.68,-227.18z"/>
   <path class="fil0" d="M4495.18 385.31l-515.11 1922.99c-32.67,123.08 -145.88,202.83 -272.76,202.83l-2.3 0 -2.26 0c-126.89,0 -240.1,-79.76 -272.76,-202.83l-515.11 -1922.24c-42.57,-158.8 63.82,-317.59 226.38,-342.64 370.04,-57 749.89,-58.51 1126.75,-0.76 162.61,25.06 269.75,183.1 227.18,342.64z"/>
   <path class="fil0" d="M2914.84 7028.12l515.11 -1922.98c32.67,-123.08 145.88,-202.83 272.76,-202.83l2.3 0 2.26 0c126.89,0 240.1,79.76 272.76,202.83l515.11 1922.24c42.57,158.79 -63.82,317.59 -226.38,342.64 -370.04,57 -749.89,58.5 -1126.75,0.79 -162.61,-25.09 -269.75,-183.13 -227.18,-342.68z"/>
   <path class="fil1" d="M11629.11 3543.24c-167.41,0 -322.78,-27.22 -466.06,-81.72 -141.24,-54.45 -264.27,-131.16 -369.2,-230.02 -102.92,-98.87 -183.64,-214.88 -242.15,-348.04 -56.5,-133.16 -84.73,-278.45 -84.73,-435.82 0,-157.38 28.23,-302.66 84.73,-435.82 58.51,-133.16 140.23,-249.18 245.16,-348.04 104.93,-98.87 228,-175.57 369.28,-230.06 141.19,-54.45 294.54,-81.68 459.99,-81.68 167.53,0 320.77,27.23 460.08,81.68 141.19,54.5 263.26,131.2 366.14,230.06 104.93,98.86 186.69,214.88 245.24,348.04 58.43,131.15 87.74,276.44 87.74,435.82 0,157.37 -29.32,303.66 -87.74,438.83 -58.55,133.2 -140.31,249.22 -245.24,348.09 -102.87,96.86 -224.95,172.51 -366.14,226.96 -139.31,54.5 -291.54,81.72 -457.11,81.72zm-2.97 -417.67c94.81,0 181.59,-16.14 260.25,-48.39 80.76,-32.29 151.35,-78.71 211.91,-139.23 60.51,-60.55 106.9,-132.19 139.18,-214.92 34.3,-82.72 51.44,-174.52 51.44,-275.39 0,-100.88 -17.14,-192.67 -51.44,-275.4 -32.28,-82.76 -78.66,-154.36 -139.18,-214.92 -58.55,-60.51 -128.14,-106.94 -208.82,-139.23 -80.76,-32.28 -168.53,-48.43 -263.35,-48.43 -94.85,0 -182.59,16.15 -263.35,48.43 -78.67,32.29 -148.3,78.71 -208.82,139.23 -60.51,60.56 -107.94,132.16 -142.23,214.92 -32.29,82.73 -48.43,174.52 -48.43,275.4 0,98.86 16.14,190.66 48.43,275.39 34.29,82.73 80.72,154.36 139.27,214.92 60.51,60.52 131.11,106.94 211.78,139.23 80.76,32.25 168.49,48.39 263.35,48.39z"/>
   <path class="fil1" d="M16700.2 3543.24c-167.42,0 -322.78,-27.22 -466.06,-81.72 -141.2,-54.45 -264.36,-131.16 -369.24,-230.02 -102.92,-98.87 -183.6,-214.88 -242.11,-348.04 -56.54,-133.16 -84.77,-278.45 -84.77,-435.82 0,-157.38 28.23,-302.66 84.77,-435.82 58.51,-133.16 140.19,-249.18 245.07,-348.04 105.02,-98.87 228.05,-175.57 369.24,-230.06 141.32,-54.45 294.67,-81.68 460.12,-81.68 167.41,0 320.77,27.23 459.99,81.68 141.28,54.5 263.35,131.2 366.23,230.06 104.93,98.86 186.69,214.88 245.12,348.04 58.5,131.15 87.87,276.44 87.87,435.82 0,157.37 -29.37,303.66 -87.87,438.83 -58.43,133.2 -140.19,249.22 -245.12,348.09 -102.87,96.86 -224.95,172.51 -366.23,226.96 -139.22,54.5 -291.49,81.72 -457.02,81.72zm-2.97 -417.67c94.8,0 181.59,-16.14 260.25,-48.39 80.76,-32.29 151.35,-78.71 211.91,-139.23 60.51,-60.55 106.85,-132.19 139.18,-214.92 34.29,-82.72 51.44,-174.52 51.44,-275.39 0,-100.88 -17.15,-192.67 -51.44,-275.4 -32.33,-82.76 -78.66,-154.36 -139.18,-214.92 -58.55,-60.51 -128.14,-106.94 -208.82,-139.23 -80.8,-32.28 -168.54,-48.43 -263.35,-48.43 -94.85,0 -182.59,16.15 -263.35,48.43 -78.67,32.29 -148.31,78.71 -208.82,139.23 -60.51,60.56 -107.98,132.16 -142.27,214.92 -32.21,82.73 -48.39,174.52 -48.39,275.4 0,98.86 16.18,190.66 48.39,275.39 34.29,82.73 80.76,154.36 139.3,214.92 60.52,60.52 131.11,106.94 211.79,139.23 80.76,32.25 168.49,48.39 263.35,48.39z"/>
   <path class="fil1" d="M21115.9 3543.24c-167.41,0 -322.78,-27.22 -466.06,-81.72 -141.19,-54.45 -264.36,-131.16 -369.28,-230.02 -102.88,-98.87 -183.56,-214.88 -242.1,-348.04 -56.55,-133.16 -84.73,-278.45 -84.73,-435.82 0,-157.38 28.18,-302.66 84.73,-435.82 58.54,-133.16 140.22,-249.18 245.11,-348.04 105.01,-98.87 228.05,-175.57 369.24,-230.06 141.31,-54.45 294.67,-81.68 460.07,-81.68 167.45,0 320.81,27.23 460,81.68 141.31,54.5 263.35,131.2 366.27,230.06 104.89,98.86 186.64,214.88 245.07,348.04 58.55,131.15 87.87,276.44 87.87,435.82 0,157.37 -29.32,303.66 -87.87,438.83 -58.43,133.2 -140.19,249.22 -245.07,348.09 -102.92,96.86 -224.96,172.51 -366.27,226.96 -139.18,54.5 -291.58,81.72 -456.99,81.72zm-3.01 -417.67c94.85,0 181.59,-16.14 260.26,-48.39 80.8,-32.29 151.39,-78.71 211.91,-139.23 60.51,-60.55 106.9,-132.19 139.23,-214.92 34.29,-82.72 51.43,-174.52 51.43,-275.39 0,-100.88 -17.14,-192.67 -51.43,-275.4 -32.33,-82.76 -78.71,-154.36 -139.23,-214.92 -58.51,-60.51 -128.14,-106.94 -208.77,-139.23 -80.8,-32.28 -168.54,-48.43 -263.4,-48.43 -94.8,0 -182.55,16.15 -263.35,48.43 -78.66,32.29 -148.26,78.71 -208.77,139.23 -60.56,60.56 -108.03,132.16 -142.32,214.92 -32.21,82.73 -48.35,174.52 -48.35,275.4 0,98.86 16.14,190.66 48.35,275.39 34.29,82.73 80.8,154.36 139.31,214.92 60.55,60.52 131.15,106.94 211.78,139.23 80.8,32.25 168.54,48.39 263.35,48.39z"/>
   <path class="fil1" d="M22649.74 3506.94l0 -2118.58 487.34 0 0 1380.11 1010.78 -1380.11 460.11 0 0 2118.58 -484.33 0 0 -1377.09 -1010.82 1377.09 -463.08 0zm977.61 -2254.8c-201.83,0 -350.09,-40.36 -444.93,-121.03 -92.8,-80.72 -140.19,-194.72 -142.28,-342.02l336.03 0c2.01,72.65 23.13,128.14 63.53,166.45 42.37,36.34 104.89,54.5 187.65,54.5 80.68,0 142.19,-18.15 184.6,-54.5 42.36,-38.31 64.62,-93.8 66.58,-166.45l335.95 0c-1.97,147.3 -50.44,261.3 -145.28,342.02 -94.81,80.67 -242.11,121.03 -441.85,121.03z"/>
   <path class="fil1" d="M9136.93 3143.76c100.91,2.01 191.71,-8.07 272.43,-30.28 82.72,-22.21 148.3,-55.5 196.73,-99.87 50.44,-44.41 75.65,-100.87 75.65,-169.5 0,-80.72 -33.29,-140.23 -99.91,-178.57 -66.58,-40.36 -155.32,-60.52 -266.32,-60.52l-554.09 0 0 -369.24 517.79 0c98.87,0 175.53,-20.15 230.02,-60.51 56.5,-40.36 84.73,-95.85 84.73,-166.45 0,-60.55 -20.16,-108.98 -60.52,-145.28 -40.36,-38.36 -95.85,-66.58 -166.49,-84.77 -68.58,-18.15 -146.25,-26.22 -233.03,-24.18l-522.64 0 0 -402.53 525.65 0c220.48,0 475.26,70.59 575.04,105.9 115.06,50.48 206.85,117.06 275.44,199.78 68.59,82.72 102.92,180.59 102.92,293.59 0,100.87 -26.26,190.66 -78.71,269.32 -52.49,78.71 -126.1,139.23 -220.94,181.59l57.5 27.27c104.93,46.38 185.65,111.95 242.15,196.73 58.51,82.72 87.74,178.53 87.74,287.52 0,100.87 -27.23,191.67 -81.73,272.38 -52.44,78.67 -125.08,145.29 -217.88,199.74 -195.77,114.88 -432.31,155.96 -659.28,155.96 -12.75,0 -25.64,0 -38.72,0l-569.19 0 0 -398.06 525.65 0z"/>
   <polygon class="fil1" points="17986.66,1787.87 17986.66,1388.35 19823.7,1388.35 19823.7,1787.87 19145.73,1787.87 19145.73,3506.94 18661.53,3506.94 18661.53,1787.87 "/>
   <path class="fil1" d="M12985.16 3506.94l0 -363.17 180.59 0c124.04,0 239.46,-81.51 293.54,-432.81 20.15,-127.13 33.33,-281.46 39.4,-463.04l0 -859.56 1658.59 0 0 2118.58 -484.33 0 0 -1719.07 -727.19 0 -14.3 441.89c-6.07,207.81 -20.12,392.41 -42.37,553.84 -22.25,161.38 -56.54,298.6 -102.92,411.6 -46.33,113 -109.98,198.74 -190.66,257.24 -80.63,58.51 -182.55,54.5 -305.72,54.5l-304.62 0z"/>
   <path class="fil1" d="M12073.16 6511.34c-167.41,0 -322.78,-27.22 -466.06,-81.72 -141.19,-54.45 -264.35,-131.16 -369.24,-230.02 -102.92,-98.87 -183.63,-214.88 -242.14,-348.04 -56.51,-133.16 -84.73,-278.45 -84.73,-435.82 0,-157.38 28.22,-302.66 84.73,-435.82 58.51,-133.16 140.23,-249.22 245.11,-348.08 105.02,-98.87 228.05,-175.53 369.24,-229.98 141.31,-54.49 294.67,-81.72 460.11,-81.72 167.42,0 320.77,27.23 459.96,81.72 141.31,54.45 263.35,131.11 366.27,229.98 104.89,98.86 186.69,214.92 245.11,348.08 58.51,131.15 87.83,276.4 87.83,435.82 0,157.37 -29.32,303.66 -87.83,438.83 -58.43,133.2 -140.23,249.22 -245.11,348.09 -102.92,96.86 -224.96,172.51 -366.27,226.96 -139.18,54.5 -291.54,81.72 -456.99,81.72zm-2.97 -417.63c94.81,0 181.55,-16.18 260.26,-48.43 80.63,-32.29 151.35,-78.71 211.86,-139.23 60.56,-60.55 106.9,-132.15 139.23,-214.88 34.29,-82.76 51.44,-174.56 51.44,-275.43 0,-100.88 -17.15,-192.67 -51.44,-275.44 -32.33,-82.72 -78.66,-154.32 -139.23,-214.88 -58.51,-60.51 -128.1,-106.94 -208.9,-139.23 -80.67,-32.28 -168.41,-48.43 -263.22,-48.43 -94.85,0 -182.59,16.15 -263.35,48.43 -78.71,32.29 -148.3,78.71 -208.81,139.23 -60.52,60.55 -107.99,132.16 -142.32,214.88 -32.21,82.77 -48.35,174.56 -48.35,275.44 0,98.86 16.14,190.66 48.35,275.43 34.33,82.73 80.8,154.32 139.31,214.88 60.55,60.52 131.15,106.94 211.82,139.23 80.76,32.25 168.5,48.43 263.35,48.43z"/>
   <path class="fil1" d="M21052.37 6511.34c-167.54,0 -322.87,-27.22 -466.18,-81.72 -141.2,-54.45 -264.23,-131.16 -369.12,-230.02 -102.92,-98.87 -183.68,-214.88 -242.23,-348.04 -56.42,-133.16 -84.64,-278.45 -84.64,-435.82 0,-157.38 28.22,-302.66 84.64,-435.82 58.55,-133.16 140.31,-249.22 245.2,-348.08 104.89,-98.87 227.96,-175.53 369.24,-229.98 141.19,-54.49 294.58,-81.72 459.99,-81.72 167.53,0 320.9,27.23 460.07,81.72 141.24,54.45 263.27,131.11 366.19,229.98 104.98,98.86 186.65,214.92 245.2,348.08 58.51,131.15 87.74,276.4 87.74,435.82 0,157.37 -29.23,303.66 -87.74,438.83 -58.55,133.2 -140.23,249.22 -245.2,348.09 -102.92,96.86 -224.95,172.51 -366.19,226.96 -139.18,54.5 -291.53,81.72 -456.98,81.72zm-3.1 -417.63c94.85,0 181.59,-16.18 260.37,-48.43 80.68,-32.29 151.27,-78.71 211.79,-139.23 60.51,-60.55 106.98,-132.15 139.18,-214.88 34.34,-82.76 51.48,-174.56 51.48,-275.43 0,-100.88 -17.14,-192.67 -51.48,-275.44 -32.2,-82.72 -78.66,-154.32 -139.18,-214.88 -58.55,-60.51 -128.14,-106.94 -208.82,-139.23 -80.68,-32.28 -168.49,-48.43 -263.35,-48.43 -94.81,0 -182.6,16.15 -263.22,48.43 -78.71,32.29 -148.38,78.71 -208.94,139.23 -60.51,60.55 -107.86,132.16 -142.19,214.88 -32.29,82.77 -48.43,174.56 -48.43,275.44 0,98.86 16.14,190.66 48.43,275.43 34.33,82.73 80.68,154.32 139.22,214.88 60.52,60.52 131.11,106.94 211.91,139.23 80.63,32.25 168.41,48.43 263.22,48.43z"/>
   <polygon class="fil1" points="24628.68,6472.02 24071.87,6472.02 23480.77,5619.58 23067.37,5621.05 23067.37,6475.04 22580.15,6475.04 22580.15,4356.45 23067.37,4356.45 23067.37,5212.46 23498.8,5210.95 24090.02,4353.4 24607.51,4353.4 23915.17,5376.69 "/>
   <polygon class="fil1" points="17923.01,4755.93 17923.01,4356.45 19760.18,4356.45 19760.18,4755.93 19082.21,4755.93 19082.21,6475.04 18598,6475.04 18598,4755.93 "/>
   <path class="fil2" d="M15590.59 6475.04l944.28 -2118.58 484.25 0 947.29 2118.58 -514.57 0 -187.98 -453.97 -982.13 0 -188.79 453.97 -502.35 0zm842.74 -818.53l340.47 -818.53 335.83 818.53 -676.3 0z"/>
   <path class="fil1" d="M14585.63 5781.94c-96.82,20.2 -189.67,30.28 -278.41,30.28 -284.47,0 -502.44,-67.58 -653.7,-202.75 -151.4,-137.21 -227.05,-333.94 -227.05,-590.19l0 -662.82 484.29 0 0 608.34c0,145.28 39.32,255.24 118.1,329.88 78.66,72.65 190.63,108.98 335.91,108.98 92.76,0 182.59,-10.11 269.33,-30.28 64.95,-16.6 126.47,-38.31 184.6,-65.11l0 -951.82 484.29 0 0 2118.58 -484.29 0 0 -763.07c-80.13,29.4 -157.8,52.74 -233.07,69.97z"/>
   <polygon class="fil1" points="8603.16,6475.04 8603.16,4356.45 10534.1,4356.45 10534.1,6475.04 10046.84,6475.04 10046.84,4755.93 9090.46,4755.93 9090.46,6475.04 "/>
  </g>
 </g>
</svg>
