<?xml version="1.0" encoding="UTF-8"?>
<!DOCTYPE svg PUBLIC "-//W3C//DTD SVG 1.1//EN" "http://www.w3.org/Graphics/SVG/1.1/DTD/svg11.dtd">
<!-- Creator: CorelDRAW 2021.5 -->
<svg xmlns="http://www.w3.org/2000/svg" xml:space="preserve" width="32.707mm" height="300mm" version="1.1" style="shape-rendering:geometricPrecision; text-rendering:geometricPrecision; image-rendering:optimizeQuality; fill-rule:evenodd; clip-rule:evenodd"
viewBox="0 0 3270.7 30000"
 xmlns:xlink="http://www.w3.org/1999/xlink"
 xmlns:xodm="http://www.corel.com/coreldraw/odm/2003">
 <defs>
  <style type="text/css">
   <![CDATA[
    .fil0 {fill:#E74B23;fill-rule:nonzero}
   ]]>
  </style>
 </defs>
 <g id="Слой_x0020_1">
  <metadata id="CorelCorpID_0Corel-Layer"/>
  <path class="fil0" d="M1207.55 7676.18l978.02 0 0 -177.46c0,-120.28 -21.04,-225.44 -63.76,-313.52 -42.07,-88.73 -101.88,-157.08 -180.09,-205.06 -77.56,-48.64 -169.58,-72.31 -276.05,-72.31 -78.22,0 -151.83,17.76 -221.5,53.9 -69.01,35.5 -128.82,87.42 -178.78,155.12 -50.61,67.04 -86.1,145.91 -107.79,235.3l-475.86 0c33.52,-184.69 95.3,-344.41 186,-480.46 90.05,-135.4 203.76,-238.59 340.47,-310.89 136.71,-71.64 289.2,-107.79 457.46,-107.79 204.4,0 380.55,42.06 529.75,126.19 148.54,84.13 263.57,205.07 343.76,362.16 80.18,157.09 120.27,343.09 120.27,557.36l0 768.35c0,214.27 -40.09,399.62 -120.27,556.7 -80.19,156.43 -195.22,276.71 -343.76,360.84 -149.2,84.13 -325.35,126.2 -529.75,126.2 -166.95,0 -318.78,-36.16 -455.49,-109.11 -136.71,-72.3 -250.42,-176.15 -340.46,-310.89 -90.71,-134.74 -153.15,-294.45 -187.98,-479.15l475.86 0c21.69,93.34 57.18,173.52 106.47,240.56 49.3,67.04 109.11,117 178.13,151.17 69.66,34.18 143.94,51.27 223.47,51.27 106.47,0 198.49,-24.31 276.05,-71.64 78.21,-47.32 138.02,-115.68 180.09,-203.75 42.72,-88.73 63.76,-192.58 63.76,-312.2l0 -159.72 -978.02 0 0 -431.17zm39.7 -7676.18c864.97,0 615,944.22 548.55,1291.19l499.27 0c164.54,0 314.76,34.54 444.94,95.77 391.52,184.28 532.16,592.65 530.67,1016.51 -2.3,636.51 -413.4,1307.9 -1480.75,1307.9 -596.55,0 -1193.27,0.07 -1789.93,0.07 191.99,-110.25 414.1,-315.01 494.34,-612.79l1457.37 0c550.62,0 858.77,-706.82 599.26,-1039.56 -77.49,-99.32 -199.78,-161.09 -348.85,-161.09l-1254.23 0c230.81,-513.07 339.9,-1034.86 331.16,-1506.81 -0.05,-139.34 -10.39,-271.51 -31.8,-391.19zm1130.89 9934.95l460.09 0 0 2799.96 -460.09 0 0 -1163.37 -1101.58 0 0 1163.37 -460.08 0 0 -2799.96 460.08 0 0 1196.23 1101.58 0 0 -1196.23zm-1101.58 5811.95l1376.98 0 0 441.02 -1376.98 0 -269.48 0 -190.6 0 0 -2799.95 190.6 0 269.48 0 1376.98 0 0 441.02 -1376.98 0 0 747.32 1165.33 0 0 441.03 -1165.33 0 0 729.56zm0 2367.21l656.61 0c74.93,0 140,-17.74 195.87,-51.93 55.86,-34.83 99.25,-83.46 130.79,-146.56 31.56,-63.1 47.32,-134.74 47.32,-215.59 0,-83.47 -15.76,-156.43 -46.66,-219.53 -30.89,-63.09 -74.27,-111.73 -130.8,-146.57 -56.52,-34.17 -121.59,-51.92 -196.52,-51.92l-656.61 0 0 832.1zm0 -1273.13l643.47 0c170.89,0 321.4,35.49 451.54,107.13 130.14,70.99 230.7,171.55 302.35,301.04 70.98,130.14 106.47,280 106.47,450.88 0,170.89 -35.49,320.75 -106.47,449.57 -71.65,128.83 -172.21,228.74 -302.35,299.72 -130.14,70.32 -280.65,105.82 -451.54,105.82l-643.47 0 0 1085.8 -460.08 0 0 -2799.96 221.5 0 238.58 0zm-460.08 3453.02l192.58 0 267.5 0 1147.59 0 0 441.03 -1147.59 0 0 2358.93 -460.08 0 0 -2799.96zm1659.6 6251.01l0 -2087.99 -1183.74 2087.99 -475.86 0 0 -2797.99 446.94 0 0 2119.86 1187.68 -2119.86 471.92 0 0 2797.99 -446.94 0zm-643.96 2357.35l-645.6 1097.64 -533.7 0 673.42 -1110.45c-96.23,-16.04 -184.15,-47.1 -263.95,-93 -122.91,-70.33 -218.21,-170.24 -285.91,-299.72 -68.35,-128.82 -102.53,-278.03 -102.53,-447.6 0,-169.57 34.18,-318.12 101.22,-446.28 67.7,-128.83 162.35,-228.07 285.25,-299.06 122.26,-70.33 264.23,-105.82 426.57,-105.82l669.76 0 250.41 0 209.67 0 0 2801.93 -460.08 0 0 -1097.64 -324.53 0zm324.53 -441.02l0 -822.25 -646.75 0c-69.68,0 -130.8,17.1 -184.04,51.28 -53.24,34.17 -94.64,82.15 -123.56,144.59 -28.27,61.79 -42.73,133.43 -42.73,214.27 0,82.16 14.46,154.46 44.04,216.9 29.57,62.44 70.33,110.42 122.9,144.6 52.59,33.52 113.71,50.61 183.39,50.61l646.75 0z"/>
 </g>
</svg>
